<svg version="1.1" id="Layer_1" xmlns="http://www.w3.org/2000/svg" xmlns:xlink="http://www.w3.org/1999/xlink" x="0px" y="0px"
	 width="100%" viewBox="0 0 688 1024" enable-background="new 0 0 688 1024" xml:space="preserve">
<path fill="#000000" opacity="1.000000" stroke="none" 
	d="
M689.000000,602.531372 
	C685.550232,608.999390 684.973816,615.905640 683.041504,622.370178 
	C664.793274,683.420105 632.526428,735.858093 586.789062,780.104553 
	C545.685913,819.867676 497.918091,848.468628 442.965088,864.376221 
	C432.481781,867.410889 426.393585,872.047119 421.698242,882.125610 
	C408.579071,910.285706 391.501160,936.157715 371.400604,959.924377 
	C357.997131,975.772400 342.575989,989.081360 322.732544,996.274719 
	C306.488892,1002.163025 290.000061,1002.977661 274.187073,995.308044 
	C265.004791,990.854431 258.335266,983.323364 254.988556,973.299438 
	C249.246780,956.101746 250.158432,938.674683 252.186157,920.974792 
	C254.068756,904.541565 258.226410,888.670105 262.074066,872.702942 
	C263.102844,868.433716 261.919891,866.673279 257.915222,865.539307 
	C222.367081,855.473267 189.293457,840.062927 158.731796,819.284546 
	C125.087616,796.410522 96.034340,768.733398 71.645256,736.157898 
	C44.901073,700.436829 25.197645,661.223755 13.121044,618.234680 
	C8.617857,602.204651 4.435949,586.097168 2.572972,569.487244 
	C2.390366,567.859192 1.743520,566.283142 1.156077,564.341492 
	C1.000000,530.312439 1.000000,496.624878 1.000000,462.468658 
	C3.370077,458.657593 2.832435,454.613556 3.475392,450.908173 
	C15.134014,383.718689 42.732754,324.041870 87.120415,272.164703 
	C110.686752,244.621994 137.670456,221.015579 168.216476,201.558868 
	C208.515610,175.889801 252.385239,159.643677 299.652649,152.561462 
	C305.253235,151.722321 310.817993,150.774353 316.498932,150.551987 
	C319.863220,150.420319 322.879669,149.117050 325.745026,147.182098 
	C349.356537,131.237396 373.951141,116.901512 399.430786,104.218178 
	C420.698700,93.631371 442.555267,84.218956 464.955322,76.230659 
	C480.742249,70.600723 496.993256,66.298378 513.431213,63.227612 
	C534.487366,59.294136 555.918945,58.708267 576.911072,63.238960 
	C605.691833,69.450645 626.735291,85.204155 633.442688,115.451355 
	C635.562500,125.011040 634.850830,135.052444 633.487061,144.779266 
	C632.523865,151.649216 630.750122,158.443893 628.085449,164.937653 
	C627.065125,167.424210 626.025696,169.772995 622.660706,170.555481 
	C622.071350,166.527405 623.072205,162.828003 624.484131,159.786377 
	C627.793213,152.657455 627.282349,145.323395 626.008606,138.236786 
	C624.519958,129.954498 623.170837,121.535042 620.070374,113.598671 
	C614.362610,98.988312 604.628357,88.259819 589.965576,82.206383 
	C561.529907,70.466904 532.678650,73.282654 503.634613,79.387444 
	C478.762146,84.615402 455.217773,93.688911 432.116699,103.918388 
	C419.528564,109.492607 407.178406,115.644653 394.996460,122.146156 
	C381.649139,129.269623 368.528168,136.747177 355.558441,144.512451 
	C354.327209,145.249619 353.240326,146.227829 352.017517,147.145859 
	C353.765839,149.371490 355.914154,148.721420 357.776642,148.793869 
	C386.343445,149.904892 414.371368,154.258911 441.869690,162.175369 
	C507.148438,180.968277 561.322693,217.286728 606.123169,267.644348 
	C644.932678,311.268005 672.030640,361.493469 686.528748,418.282745 
	C687.138733,420.672119 687.028687,423.298279 688.773682,425.719391 
	C689.000000,484.687561 689.000000,543.375122 689.000000,602.531372 
M264.010193,215.523972 
	C253.646713,225.199738 243.834137,235.455017 234.797485,246.330627 
	C215.493576,269.562897 198.813156,294.578491 184.841782,321.439789 
	C173.268311,343.690887 163.134506,366.354584 158.262192,391.154907 
	C155.624008,404.583313 155.151062,417.967041 157.834381,431.312866 
	C162.818832,456.103699 175.383408,476.753754 193.620071,494.003876 
	C199.302399,499.378815 205.087082,504.732666 211.774002,508.977203 
	C207.556747,500.189240 202.868607,491.812622 199.791672,482.622711 
	C193.605316,464.145996 190.509003,445.549561 196.785873,426.484406 
	C200.228729,416.027161 205.251129,406.235596 210.453949,396.568726 
	C213.916916,390.134521 217.149292,383.543182 221.562119,377.662292 
	C222.446228,376.484070 223.313950,375.042511 225.151169,375.513123 
	C227.204941,376.039215 227.372330,377.807068 227.414551,379.497467 
	C227.451813,380.988922 227.228531,382.485596 227.237564,383.979279 
	C227.296768,393.781433 225.982681,403.514771 226.852661,413.398315 
	C227.696793,422.988281 228.180984,432.624481 228.919525,442.240479 
	C229.981277,456.064850 227.783997,469.823730 225.111084,483.360107 
	C223.044861,493.824005 222.762039,504.150482 224.366226,514.608826 
	C224.918365,518.208435 226.460587,521.294800 229.485565,523.444946 
	C236.001526,528.076660 242.444275,532.823914 249.116913,537.220398 
	C274.703217,554.078613 299.615448,571.911316 324.166290,590.207275 
	C346.596313,606.922668 368.137054,624.821472 388.941833,643.541016 
	C392.820404,647.030884 394.957001,645.975891 397.834930,642.916992 
	C406.852936,633.332031 415.931580,623.803406 425.048950,614.312744 
	C449.519165,588.840698 473.792755,563.165344 500.885284,540.379761 
	C501.659119,539.728943 502.988647,539.127747 502.256531,537.460510 
	C501.309845,537.383240 500.317902,537.188171 499.338806,537.239258 
	C480.703003,538.211487 462.510895,535.950623 444.711578,530.228821 
	C429.311279,525.278198 414.618073,518.679077 403.129456,507.246918 
	C394.456085,498.616180 385.259796,496.634125 374.056305,499.525879 
	C366.814941,501.394989 359.492706,503.209595 351.957245,503.094360 
	C337.921906,502.879822 325.366821,497.559814 313.282257,491.050659 
	C294.448242,480.906128 278.680939,468.241028 273.722229,445.672058 
	C270.130463,429.324463 278.074463,409.217041 296.822662,405.165527 
	C303.294586,403.766937 309.736511,402.174866 316.262756,401.099976 
	C321.301819,400.270050 322.863495,397.245422 322.861664,392.727844 
	C322.859131,386.466675 321.090546,380.541809 318.894806,374.813263 
	C314.574554,363.542084 312.069336,352.298981 315.732758,340.233154 
	C317.275787,335.151093 318.442108,329.984039 320.471924,325.025452 
	C321.467377,322.593689 321.997345,320.015869 325.093567,320.020721 
	C328.518158,320.026062 328.428497,323.143097 329.187592,325.428589 
	C332.037842,334.009949 333.022156,342.962219 334.507965,351.818878 
	C335.070984,355.174988 335.149353,358.471558 334.067932,361.698975 
	C330.455872,372.478973 328.433044,383.480164 329.228821,394.896851 
	C329.382965,397.108215 328.436676,400.238983 331.682251,400.620758 
	C340.511475,401.659302 350.501923,401.340607 357.367096,392.423676 
	C364.303436,383.414276 363.556702,373.038483 364.473083,362.891357 
	C365.828857,347.878876 372.777985,335.963470 384.759064,327.291992 
	C394.436371,320.287872 404.793304,314.222778 414.849396,307.742126 
	C416.288879,306.814423 417.811127,305.947693 419.472107,307.059723 
	C421.275848,308.267395 421.280609,310.106262 420.780670,311.989594 
	C419.245392,317.772919 418.057465,323.680511 416.068634,329.304352 
	C412.582916,339.160919 409.485596,349.305145 402.093903,357.214844 
	C396.174591,363.548950 389.928253,369.588409 382.617432,374.286011 
	C374.294769,379.633759 367.831696,386.582581 362.789398,395.022888 
	C359.673523,400.238556 354.986786,403.774384 349.225433,405.461670 
	C340.878235,407.906250 332.327576,409.549591 323.631256,407.517151 
	C313.389709,405.123596 304.115143,408.008240 295.308838,412.667511 
	C290.749176,415.079956 286.840149,418.704529 285.094727,423.859467 
	C280.081024,438.666718 283.838287,451.966705 293.519073,463.384064 
	C304.414764,476.234161 318.963318,484.152344 334.420807,490.292877 
	C344.071564,494.126648 354.097015,495.018494 364.317413,492.546448 
	C368.999542,491.413910 373.687592,490.249176 378.430939,489.438232 
	C387.902557,487.818817 396.452484,489.548859 404.103241,495.955963 
	C410.854523,501.609894 417.787994,507.111450 425.294403,511.790710 
	C445.591766,524.443359 468.563843,527.502869 491.625916,529.577881 
	C511.360352,531.353638 530.114441,524.845276 549.043640,520.697571 
	C567.630493,516.624817 585.074280,509.065826 602.088074,500.615692 
	C609.994385,496.688934 617.844543,492.684296 623.296387,485.271851 
	C631.875793,473.606995 631.593811,460.081360 622.444885,449.240753 
	C620.513428,446.952118 618.452393,444.665131 617.067139,442.050964 
	C615.384888,438.876221 613.049805,437.913483 609.735962,438.304077 
	C601.518738,439.272614 594.100281,436.769165 586.520081,433.807983 
	C577.159729,430.151398 568.230164,423.650635 557.165955,427.170776 
	C556.962280,427.235596 556.617371,426.856476 556.259766,426.636047 
	C555.519592,423.941132 556.625610,421.810333 558.542358,420.003448 
	C570.302429,408.917206 577.085815,395.088989 581.244751,379.680908 
	C582.477722,375.112823 582.276428,370.059265 585.546021,366.058594 
	C586.555420,364.823486 586.434448,363.330566 584.675232,362.294006 
	C576.362305,357.395752 575.596252,356.074829 579.243774,343.582428 
	C581.735229,335.049469 583.585999,326.177643 582.674011,317.131805 
	C582.285522,313.277802 580.510132,310.017273 576.116089,309.437439 
	C571.835815,308.872620 567.524902,308.537781 563.225952,308.116852 
	C550.144226,306.835938 537.105591,305.718872 524.734558,300.444946 
	C510.955017,294.570557 499.262054,287.621155 498.075134,270.374451 
	C497.468933,261.566193 494.178406,253.247787 489.215118,245.698151 
	C478.114777,228.813354 464.516968,214.295242 448.080048,202.582520 
	C440.030121,196.846222 432.390930,190.703873 422.173553,188.150894 
	C384.508301,178.739594 346.510956,177.070450 308.121979,181.550552 
	C304.626465,181.958481 301.013306,182.186996 297.915955,184.922623 
	C286.681274,194.845322 275.037384,204.307449 264.010193,215.523972 
M252.550949,831.851990 
	C258.559967,833.830017 264.546875,835.876709 270.772308,837.116882 
	C272.336914,837.428528 274.177002,837.782898 274.409729,835.802368 
	C274.824310,832.274231 277.553802,829.999390 278.605530,826.845703 
	C282.930634,813.876648 289.038055,801.672607 294.851471,789.341919 
	C309.881348,757.462402 327.808319,727.332153 349.212189,699.307190 
	C358.313324,687.390686 367.675415,675.679871 378.199371,664.967407 
	C380.962555,662.154785 381.397522,659.757080 378.109222,657.091858 
	C375.526001,654.998047 373.129913,652.675171 370.603912,650.508667 
	C354.804596,636.957886 339.258667,623.108765 322.431244,610.791260 
	C316.643341,606.554565 310.377197,603.412170 303.399872,602.504883 
	C290.489319,600.826294 277.537933,601.664307 264.568268,602.713745 
	C252.636093,603.679199 240.602509,604.043030 228.682999,602.328003 
	C209.966019,599.634949 193.791000,590.694763 177.900864,581.142822 
	C176.170273,580.102539 175.269333,578.629456 175.552765,576.569702 
	C175.863876,574.308838 177.564514,573.662598 179.465927,573.378479 
	C181.273651,573.108276 183.100082,572.962158 184.919006,572.768311 
	C194.337952,571.764343 203.775055,571.172729 213.160934,569.561279 
	C223.339172,567.813782 233.879456,567.621216 244.013474,569.424561 
	C256.794708,571.698914 269.068939,576.126038 280.722687,582.045898 
	C281.919098,582.653687 283.042511,583.985779 285.075104,582.983948 
	C284.177460,582.214355 283.494843,581.532104 282.719879,580.979370 
	C272.694122,573.828430 262.832581,566.429504 252.585938,559.609436 
	C223.417419,540.195129 195.540787,519.263611 171.411423,493.631775 
	C165.406509,487.252930 157.801666,483.836304 148.611038,484.113495 
	C142.649979,484.293274 136.595810,483.822540 130.691635,482.928375 
	C119.494385,481.232727 108.438446,478.655640 98.042282,474.055542 
	C79.739258,465.956726 64.886658,453.260132 51.699284,438.436798 
	C48.029346,434.311584 44.231728,430.299988 40.048191,425.753174 
	C35.358116,442.527344 32.707588,458.736908 30.975554,475.128784 
	C27.509388,507.932495 27.603523,540.714539 33.589771,573.176514 
	C44.687420,633.356323 69.456566,687.284912 109.336662,733.978333 
	C148.048141,779.303528 195.042130,812.593628 252.550949,831.851990 
M619.776184,434.729523 
	C620.111511,438.824829 623.212708,441.061554 625.894165,443.445007 
	C633.862549,450.527954 637.029907,459.452087 636.120972,469.855255 
	C634.945862,483.305420 628.298767,493.662476 617.489685,501.488617 
	C610.979736,506.202118 603.676636,509.371674 596.408936,512.733948 
	C577.905945,521.293884 558.774536,527.632874 538.682983,531.163818 
	C532.196899,532.303711 525.250549,532.188843 519.651611,536.390381 
	C516.067383,539.080078 512.755554,542.141602 509.394531,545.118774 
	C484.057953,567.561523 460.574829,591.900757 436.883118,616.026917 
	C425.565338,627.552246 414.251923,639.082520 402.841858,650.516052 
	C400.257050,653.106201 400.414581,654.888977 402.996704,657.508301 
	C407.429749,662.005249 411.449585,666.917419 415.542664,671.740417 
	C430.000946,688.777100 439.962128,708.196960 445.530426,729.786255 
	C453.284485,759.849976 451.258423,789.833374 444.195435,819.720459 
	C443.224792,823.827637 442.588898,828.013977 441.759277,832.367004 
	C445.438354,832.391418 448.178558,831.086975 450.937439,830.045227 
	C491.598053,814.692566 528.342224,792.886597 560.130554,763.103394 
	C608.410950,717.868530 640.593750,662.994202 657.752441,599.191895 
	C661.389160,585.669128 663.706299,571.892090 665.780334,558.070618 
	C666.876282,550.767273 669.690186,544.343506 674.796204,538.982666 
	C679.337219,534.214966 683.718994,534.573425 686.674255,539.873596 
	C686.769775,540.045044 687.243530,540.005493 687.824463,540.120422 
	C688.155396,534.509277 688.343018,528.966980 687.653198,522.811218 
	C683.112122,524.953613 681.544983,522.916321 680.954346,519.280701 
	C680.353882,515.584473 678.519287,512.549744 676.327271,509.485291 
	C672.322510,503.886658 668.091064,498.435577 667.702637,490.873077 
	C667.242676,481.918549 665.960449,472.994385 664.780518,464.090729 
	C658.560486,417.151520 642.298889,373.789917 617.505493,333.615814 
	C588.144958,286.041351 549.015076,248.362045 500.800079,220.151245 
	C486.746368,211.928345 472.088440,204.891342 456.407410,199.446411 
	C456.625214,201.451309 457.944672,202.004547 458.916412,202.796875 
	C470.971313,212.625763 481.786591,223.673813 490.868713,236.294373 
	C497.004791,244.821167 501.989380,253.813065 503.682098,264.634033 
	C504.673126,270.969177 504.753296,278.412079 509.946289,283.163330 
	C518.547668,291.033020 528.691895,296.983398 540.321838,298.413422 
	C553.195007,299.996277 565.949890,302.327911 578.829285,303.785065 
	C583.840210,304.351990 587.209839,307.094025 588.692627,311.776245 
	C589.841553,315.404327 590.468872,319.146698 589.634460,323.081573 
	C587.773865,331.856049 586.931458,340.828491 584.497742,349.500488 
	C583.403198,353.400787 584.960266,355.736664 588.835693,357.105682 
	C592.854858,358.525452 596.933594,358.828003 601.103516,359.046753 
	C609.134521,359.468018 612.880981,363.378479 613.265381,371.302277 
	C613.618591,378.584229 612.523132,385.462372 609.269165,392.137024 
	C605.695251,399.467957 606.628418,401.530060 613.647461,405.295105 
	C614.673706,405.845581 615.740051,406.336884 616.710693,406.973236 
	C626.567261,413.435455 628.156799,422.487427 621.135620,431.887451 
	C620.645264,432.543915 620.339172,433.338043 619.776184,434.729523 
M382.027130,673.517822 
	C362.500000,695.005188 345.144836,718.121094 329.670624,742.691284 
	C312.414642,770.090637 298.145477,798.982849 286.172638,829.016235 
	C281.521088,840.684570 281.870300,840.537964 294.466217,842.773010 
	C321.844727,847.630859 349.392029,848.798523 377.041718,846.559204 
	C391.288727,845.405334 405.480194,843.393372 419.338745,839.591003 
	C421.787537,838.919067 423.080383,837.794128 423.926147,835.126038 
	C428.265442,821.437134 430.694275,807.416504 432.462372,793.203369 
	C435.470032,769.025024 432.833374,745.617493 425.166901,722.461060 
	C418.872681,703.449463 407.171143,688.098999 394.544586,673.245972 
	C388.724976,666.400208 388.390045,666.684937 382.027130,673.517822 
M207.533432,214.063202 
	C164.916595,236.850082 128.554169,267.062500 99.212166,305.547150 
	C77.757172,333.687317 60.963631,364.414734 48.475739,397.525482 
	C46.992287,401.458740 47.644257,402.989746 51.952621,404.023254 
	C65.324150,407.230927 77.565407,413.086182 88.888359,420.928650 
	C106.444023,433.087982 120.444450,448.954346 134.624191,464.619446 
	C140.614029,471.236755 148.498886,474.032135 156.597626,476.583405 
	C157.231766,476.783203 157.911377,476.471924 158.253235,475.524139 
	C158.209259,473.588776 156.825165,472.021515 155.902893,470.311462 
	C150.177536,459.695923 146.212723,448.399750 143.772644,436.666229 
	C138.801376,412.761047 141.613449,389.286957 149.276749,366.374969 
	C157.050781,343.131744 167.888275,321.235870 179.866577,299.897003 
	C198.986465,265.835693 222.712723,235.307999 250.459396,207.857498 
	C255.714996,202.657990 260.823029,197.309280 265.999146,192.029419 
	C245.543259,196.606583 226.601471,204.472610 207.533432,214.063202 
M315.957092,983.428711 
	C333.592285,978.572998 346.599243,966.784973 358.338989,953.783325 
	C376.145782,934.062744 390.764465,911.986816 403.027802,888.402283 
	C405.431763,883.779053 408.307343,879.300659 409.622253,874.217041 
	C407.108185,872.622253 404.933838,873.274048 402.875061,873.665039 
	C386.626740,876.750732 370.201813,877.906738 353.704315,878.162292 
	C327.798309,878.563782 302.180450,875.941162 276.920746,870.186646 
	C272.938843,869.279480 271.256378,870.136230 270.221252,874.149719 
	C268.484009,880.885498 266.837524,887.633179 265.222290,894.400085 
	C260.828064,912.809509 258.343842,931.355164 260.337250,950.260193 
	C261.704651,963.228699 265.295044,975.499634 277.885529,982.024048 
	C289.837097,988.217407 302.521637,988.281433 315.957092,983.428711 
M108.388145,459.019226 
	C114.904716,462.430023 121.058739,466.615570 128.883438,469.133148 
	C108.789101,439.854004 64.368515,409.267670 42.843643,410.450165 
	C63.008099,428.456573 83.460693,446.083130 108.388145,459.019226 
M596.710815,392.202972 
	C605.006470,387.682159 608.976196,380.936340 607.488892,371.348419 
	C606.992859,368.150818 605.585388,366.577332 602.072266,367.609436 
	C599.535400,368.354736 596.905273,368.863586 594.281372,369.211395 
	C590.862122,369.664612 589.140869,371.445312 588.230774,374.796936 
	C584.966370,386.818817 581.378296,398.736145 574.176819,409.171173 
	C572.229980,411.992218 570.475403,414.945953 568.635315,417.834534 
	C570.635376,419.442413 572.054138,418.144897 573.438293,417.458679 
	C577.386597,415.501312 580.465393,412.470337 583.188232,409.079285 
	C587.553833,403.642548 591.856628,398.155426 596.710815,392.202972 
M616.439880,414.060272 
	C613.205566,411.440369 610.149353,408.562592 605.339783,410.376953 
	C597.414795,413.366577 589.410095,416.144287 581.457825,419.062744 
	C579.635559,419.731537 577.593384,420.196991 576.470215,423.087311 
	C586.387878,427.156982 595.728088,432.664612 606.883301,432.755890 
	C613.091858,432.806702 617.041748,429.414459 619.526367,423.918304 
	C621.297729,420.000031 619.396667,417.240051 616.439880,414.060272 
M64.812813,436.702789 
	C58.041828,431.453522 51.270847,426.204254 44.294773,420.795990 
	C55.407829,444.140167 108.135857,478.682922 128.194809,475.057587 
	C104.799988,465.382538 84.350822,452.454132 64.812813,436.702789 
M260.158630,588.124329 
	C265.580780,588.165710 270.881927,590.587036 277.127045,589.352417 
	C254.348160,576.914185 215.025528,571.701782 202.707260,579.644653 
	C221.811661,583.052002 240.263031,587.215759 260.158630,588.124329 
M212.645660,409.952759 
	C212.616348,409.218811 213.152100,408.373657 212.243851,407.791199 
	C197.020691,428.339111 196.688568,477.837708 212.073227,492.884674 
	C208.642883,481.810760 207.903549,470.411896 207.245590,458.959961 
	C206.300812,442.515625 208.129074,426.442139 212.645660,409.952759 
M214.211670,475.290924 
	C214.615479,478.105347 215.019302,480.919769 215.423111,483.734161 
	C215.855499,483.680298 216.287888,483.626404 216.720276,483.572510 
	C221.795898,461.272980 219.522110,438.810089 218.177551,416.367859 
	C213.053101,424.681030 211.825409,444.644775 214.211670,475.290924 
M393.080139,336.607086 
	C396.604004,332.553101 400.474976,328.770477 403.515350,323.812286 
	C385.981140,327.723694 366.681335,354.320190 372.649597,366.311981 
	C379.264160,356.414917 384.952393,346.089111 393.080139,336.607086 
M379.720245,366.560822 
	C379.455597,367.283020 378.697815,367.879974 379.136169,368.792694 
	C391.773560,364.059601 410.861847,337.603241 408.955383,326.853638 
	C397.337372,338.715576 387.629272,351.572266 379.720245,366.560822 
M243.637695,592.960449 
	C230.911560,591.464661 218.403763,588.626343 205.767212,586.584534 
	C221.769043,596.722595 239.439529,596.155579 257.188843,595.058228 
	C253.042175,593.790955 248.601440,594.765442 243.637695,592.960449 
M595.951477,400.446442 
	C594.153870,403.152679 592.356262,405.858917 590.370850,408.847900 
	C602.118103,408.629913 604.652161,405.240082 600.615784,395.925354 
	C598.546204,396.536499 597.535828,398.303040 595.951477,400.446442 
M326.977814,356.337067 
	C326.977814,358.149750 326.977814,359.962433 326.977814,361.775085 
	C329.113983,355.858734 328.931610,350.018494 327.309509,343.551605 
	C326.186127,347.942230 327.244934,351.715179 326.977814,356.337067 
z"/>
<path fill="#000000" opacity="1.000000" stroke="none" 
	d="
M455.239594,251.908356 
	C466.546722,249.661499 477.144684,251.599136 487.530273,254.654510 
	C491.659912,255.869431 492.628540,260.142670 493.030487,263.923676 
	C493.335815,266.795166 490.821808,267.147430 488.521667,267.287750 
	C481.826111,267.696198 475.290039,266.206482 468.682068,265.613770 
	C463.341339,265.134766 458.091156,265.091309 452.811493,266.142029 
	C446.000916,267.497345 441.053406,271.233032 437.752289,277.285004 
	C436.085907,280.340027 435.084259,283.753296 432.779297,286.465210 
	C431.707489,287.726196 430.661346,289.495026 428.760590,288.285461 
	C427.104340,287.231506 427.379272,285.241547 428.101929,283.746765 
	C431.929138,275.830902 435.538330,267.774017 441.428040,261.062958 
	C445.107788,256.870056 449.262238,253.394241 455.239594,251.908356 
M454.431335,257.462372 
	C453.168915,258.137177 451.554413,258.439331 451.284607,260.982178 
	C463.206146,257.826416 474.828705,261.544861 487.104156,262.005707 
	C483.281036,256.623932 465.547577,254.378464 454.431335,257.462372 
z"/>
<path fill="#000000" opacity="1.000000" stroke="none" 
	d="
M492.862793,326.830750 
	C498.580444,323.462921 502.907074,319.130005 506.532349,314.058868 
	C508.494598,311.313995 510.637451,309.830963 514.038086,312.081757 
	C515.903198,313.316223 518.266541,312.694366 520.408142,312.882965 
	C521.606201,312.988464 522.817810,313.186584 523.235840,314.502258 
	C523.585266,315.601807 522.834961,316.370605 522.068848,317.058746 
	C505.903351,331.579102 487.483856,341.289154 465.486694,342.888641 
	C461.908813,343.148804 457.868042,342.714081 453.867218,338.145416 
	C468.820618,338.706390 481.374512,334.947418 492.862793,326.830750 
z"/>
<path fill="#000000" opacity="1.000000" stroke="none" 
	d="
M309.078369,459.904480 
	C321.038239,470.239380 334.156586,477.262390 349.697510,479.353729 
	C353.380096,479.849304 356.997375,479.681458 360.653412,479.595245 
	C362.143646,479.560089 363.961548,479.426697 364.166138,481.459167 
	C364.392334,483.705811 362.595490,484.027527 360.847809,484.273895 
	C345.379761,486.454254 331.620850,482.053406 318.779999,473.669159 
	C310.450012,468.230255 303.606201,461.246307 297.092133,453.864594 
	C290.441254,446.327820 289.075073,434.823669 294.118286,427.503265 
	C295.236023,425.880859 296.514801,422.986816 299.030701,424.566162 
	C301.304047,425.993225 299.442230,428.160187 298.384613,429.777222 
	C294.996857,434.956848 295.496368,440.235504 298.065399,445.451447 
	C300.727570,450.856476 303.996429,455.867706 309.078369,459.904480 
z"/>
<path fill="#000000" opacity="1.000000" stroke="none" 
	d="
M566.989807,355.200745 
	C564.749573,357.649689 562.910767,360.071686 560.634338,361.968475 
	C556.127686,365.723602 548.404602,364.873627 544.751526,360.515289 
	C543.809814,359.391815 543.324219,358.088501 544.164490,356.866821 
	C545.183899,355.384674 546.381104,356.304718 547.632751,356.902527 
	C554.666626,360.262115 557.877014,359.407959 562.479309,353.112030 
	C562.969849,352.440918 563.355957,351.678833 563.916382,351.075958 
	C566.074646,348.754242 568.194275,345.999298 571.899414,348.161285 
	C574.497803,349.677460 574.858459,353.515289 573.042908,357.239502 
	C570.315857,358.347168 571.073853,351.013397 566.989807,355.200745 
z"/>
<path fill="#000000" opacity="1.000000" stroke="none" 
	d="
M485.786316,299.114868 
	C483.802124,299.558624 482.165070,300.037811 480.545715,299.983978 
	C470.785370,299.659698 463.391998,304.109650 457.267181,311.244965 
	C456.625092,311.993011 455.997620,312.780121 455.237671,313.393372 
	C454.396759,314.071930 453.353119,314.146301 452.487488,313.424438 
	C451.427216,312.540222 451.524963,311.442108 452.126099,310.288361 
	C457.140289,300.665375 473.470612,293.263916 484.261810,295.719940 
	C486.055084,296.128082 487.730164,296.532990 485.786316,299.114868 
z"/>
</svg>